HIERARCHY
ROOT Hips
{
	OFFSET	0.00	0.00	0.00
	CHANNELS 6 Xposition Yposition Zposition Zrotation Xrotation Yrotation
	JOINT LeftUpLeg
	{
		OFFSET	 0.126116	-0.014019	-0.065224
		CHANNELS 3 Zrotation Xrotation Yrotation
		JOINT LeftLeg
		{
			OFFSET	 0.000000	 0.000000	 0.569914
			CHANNELS 3 Zrotation Xrotation Yrotation
			JOINT LeftFoot
			{
				OFFSET	 0.000000	 0.000000	 0.544423
				CHANNELS 3 Zrotation Xrotation Yrotation
				JOINT LeftToeBase
				{
					OFFSET	 0.000000	 0.000000	 0.207117
					CHANNELS 3 Zrotation Xrotation Yrotation
					End Site
					{
						OFFSET	 0.000000	 0.000000	 0.207117
					}
				}
			}
		}
	}
	JOINT RightUpLeg
	{
		OFFSET	-0.124023	-0.008373	-0.065224
		CHANNELS 3 Zrotation Xrotation Yrotation
		JOINT RightLeg
		{
			OFFSET	 0.000000	 0.000000	 0.570047
			CHANNELS 3 Zrotation Xrotation Yrotation
			JOINT RightFoot
			{
				OFFSET	 0.000000	 0.000000	 0.544354
				CHANNELS 3 Zrotation Xrotation Yrotation
				JOINT RightToeBase
				{
					OFFSET	 0.000000	 0.000000	 0.207540
					CHANNELS 3 Zrotation Xrotation Yrotation
					End Site
					{
						OFFSET	 0.000000	 0.000000	 0.207540
					}
				}
			}
		}
	}
	JOINT Spine
	{
		OFFSET	 0.000184	-0.007763	 0.117403
		CHANNELS 3 Zrotation Xrotation Yrotation
		JOINT Spine1
		{
			OFFSET	 0.000000	 0.000000	 0.137269
			CHANNELS 3 Zrotation Xrotation Yrotation
			JOINT Spine2
			{
				OFFSET	 0.000000	 0.000000	 0.156879
				CHANNELS 3 Zrotation Xrotation Yrotation
				JOINT LeftShoulder
				{
					OFFSET	 0.080501	-0.002496	 0.160144
					CHANNELS 3 Zrotation Xrotation Yrotation
					JOINT LeftArm
					{
						OFFSET	 0.000000	 0.000000	 0.164363
						CHANNELS 3 Zrotation Xrotation Yrotation
						JOINT LeftForeArm
						{
							OFFSET	 0.000000	 0.000000	 0.364576
							CHANNELS 3 Zrotation Xrotation Yrotation
							JOINT LeftHand
							{
								OFFSET	 0.000000	 0.000000	 0.360812
								CHANNELS 3 Zrotation Xrotation Yrotation
								JOINT LeftHandIndex1
								{
									OFFSET	 0.000000	 0.000000	 0.086006
									CHANNELS 3 Zrotation Xrotation Yrotation
									JOINT LeftHandIndex2
									{
										OFFSET	 0.000000	 0.000000	 0.047236
										CHANNELS 3 Zrotation Xrotation Yrotation
										JOINT LeftHandIndex3
										{
											OFFSET	-0.004284	-0.000551	 0.038166
											CHANNELS 3 Zrotation Xrotation Yrotation
											End Site
											{
												OFFSET	-0.004284	-0.000551	 0.038166
											}
										}
									}
								}
							}
						}
					}
				}
				JOINT Neck
				{
					OFFSET	 0.000000	 0.000000	 0.176489
					CHANNELS 3 Zrotation Xrotation Yrotation
					JOINT Head
					{
						OFFSET	 0.000000	-0.001747	 0.077940
						CHANNELS 3 Zrotation Xrotation Yrotation
						End Site
						{
							OFFSET	 0.000000	-0.001747	 0.077940
						}
					}
				}
				JOINT RightShoulder
				{
					OFFSET	-0.080363	 0.000306	 0.159706
					CHANNELS 3 Zrotation Xrotation Yrotation
					JOINT RightArm
					{
						OFFSET	 0.000000	 0.000000	 0.164196
						CHANNELS 3 Zrotation Xrotation Yrotation
						JOINT RightForeArm
						{
							OFFSET	 0.000000	 0.000000	 0.365611
							CHANNELS 3 Zrotation Xrotation Yrotation
							JOINT RightHand
							{
								OFFSET	 0.000000	 0.000000	 0.360648
								CHANNELS 3 Zrotation Xrotation Yrotation
								JOINT RightHandIndex1
								{
									OFFSET	 0.000000	 0.000000	 0.069977
									CHANNELS 3 Zrotation Xrotation Yrotation
									JOINT RightHandIndex2
									{
										OFFSET	 0.000000	 0.000000	 0.052305
										CHANNELS 3 Zrotation Xrotation Yrotation
										JOINT RightHandIndex3
										{
											OFFSET	 0.009002	-0.000782	 0.042196
											CHANNELS 3 Zrotation Xrotation Yrotation
											End Site
											{
												OFFSET	 0.009002	-0.000782	 0.042196
											}
										}
									}
								}
							}
						}
					}
				}
			}
		}
	}
}
MOTION
Frames:    13
Frame Time: 0.03333334
-11.348310	-34.776910	 0.903723	-35.392830	 16.909350	 3.765847	 3.326582	-35.034420	 175.105900	-0.810743	-43.344010	-0.093331	-0.576963	 80.488430	 0.646667	-2.348355	 34.688840	-0.141410	-0.706244	-36.329430	-179.617900	-3.124013	-43.555510	-1.030551	-1.581286	 80.501950	 0.366033	 2.406870	 19.601370	-0.181000	-10.267540	 15.678480	 2.674243	-8.947875	 3.204416	-1.578525	-11.437110	-2.393902	-0.997156	-125.889300	 89.281810	-141.659300	 52.475010	 65.061720	-60.735440	-15.769960	 1.530359	-30.341440	-4.233023	-1.964211	-5.456013	-5.839726	-12.537600	-1.710248	-5.213516	-0.193813	 3.566525	-1.378229	 35.397820	-2.634230	 0.835349	 0.249594	-3.833244	-2.806760	-6.670739	 0.668675	 93.687110	 85.919560	 171.994200	-62.736700	 73.543210	 73.129460	 2.851295	-12.318070	 43.353000	-21.305570	-2.820611	 9.693338	-10.185460	-10.573700	-39.141510	 5.070815	-0.697434	-9.399699	-2.350882	 35.473990	 5.254307
-11.355900	-34.794210	 0.905439	-35.131070	 17.775950	 3.780872	 3.619017	-34.865650	 175.535900	-1.763290	-43.083310	-0.581806	-0.890832	 81.336120	 0.361878	-2.353771	 33.967900	-0.124297	-0.764433	-35.863150	-179.416400	-2.788683	-42.761570	-0.844150	-1.593525	 81.887340	 0.666276	 2.406211	 20.322400	-0.166695	-10.276840	 15.348670	 2.392644	-8.799715	 2.818800	-1.707373	-11.316380	-2.902495	-1.036597	-124.966800	 89.266180	-142.582600	 57.941180	 66.777980	-62.515010	-14.753090	 1.248161	-28.416440	-3.647427	-2.002072	-5.457651	-5.451484	-11.996490	-0.856584	-5.213516	-0.193813	 3.566525	-1.378229	 35.397820	-2.634230	 0.769365	-0.002872	-3.719396	-2.798952	-7.360269	 0.907263	 93.689870	 85.971290	 172.067400	-58.497650	 76.450570	 66.737000	 1.574105	-10.559160	 35.020640	-23.322450	-2.798202	 9.704390	-9.590124	-9.370541	-38.614560	 5.070815	-0.697434	-9.399699	-2.350882	 35.473990	 5.254307
-11.362970	-34.808960	 0.905597	-35.216230	 18.449330	 3.838071	 3.556157	-34.978200	 175.624600	-2.065352	-43.455180	-0.839310	-1.049928	 82.109250	 0.213498	-2.346417	 34.936420	-0.147353	-0.746577	-35.462560	-179.462500	-2.399988	-42.348960	-0.573588	-1.484768	 82.962430	 0.924350	 2.404984	 21.312520	-0.146925	-10.084490	 15.009250	 2.225777	-8.494688	 2.447158	-1.781412	-11.170990	-3.347871	-1.066439	-121.439500	 89.178130	-146.019200	 62.395660	 67.923660	-64.072750	-13.547200	 0.980615	-27.021340	-2.920424	-2.034314	-5.456181	-4.715372	-11.299480	 0.817739	-5.213516	-0.193813	 3.566525	-1.378229	 35.397820	-2.634230	 0.744049	-0.348676	-3.486372	-2.872349	-7.929453	 0.686190	 93.674690	 86.047200	 172.211300	-48.780050	 79.076470	 54.453760	 0.858420	-9.538894	 30.315160	-25.345720	-2.811195	 9.667250	-9.046751	-8.235577	-38.141800	 5.070815	-0.697434	-9.399699	-2.350882	 35.473990	 5.254307
-11.368980	-34.821630	 0.906188	-35.635140	 18.947770	 3.947400	 3.559238	-34.858780	 175.680100	-2.183726	-43.711330	-0.933802	-1.126276	 82.513160	 0.180116	-2.336903	 36.092110	-0.175419	-0.738163	-35.292470	-179.570400	-2.351044	-42.171600	-0.535921	-1.484937	 83.339760	 0.990783	 2.404636	 21.551780	-0.142126	-9.850927	 14.713090	 2.023511	-8.099655	 2.040403	-1.642180	-10.877590	-3.792711	-1.080289	-114.943700	 88.975120	-152.462900	 65.258960	 68.989050	-64.735120	-13.002520	 0.855033	-26.060370	-2.490482	-2.053873	-5.455040	-4.073233	-10.629550	 2.310954	-5.213516	-0.193813	 3.566525	-1.378229	 35.397820	-2.634230	 0.850259	-0.542156	-3.241817	-2.842936	-8.513371	 0.764200	 93.984370	 86.320170	 172.014100	-37.165200	 80.480830	 40.778630	 0.831193	-8.797893	 27.974670	-26.355690	-2.818409	 9.635252	-8.758286	-7.574231	-37.925620	 5.070815	-0.697434	-9.399699	-2.350882	 35.473990	 5.254307
-11.374050	-34.832490	 0.908410	-36.109710	 19.469400	 3.916204	 3.575981	-34.787440	 175.766100	-2.510656	-43.530240	-1.144632	-1.231538	 82.371700	 0.055233	-2.328716	 37.010220	-0.198207	-0.838116	-35.450530	-179.390200	-2.602442	-42.090370	-0.766041	-1.667829	 83.400790	 0.920214	 2.404544	 21.615180	-0.140851	-9.730571	 14.359030	 1.879444	-7.740514	 1.694390	-1.402997	-10.460710	-4.151363	-1.071226	-109.147000	 88.699300	-158.297800	 66.972020	 69.743450	-65.195650	-12.716250	 0.763940	-25.406750	-2.080487	-2.070405	-5.453367	-3.878100	-10.853660	 2.772755	-5.213516	-0.193813	 3.566525	-1.378229	 35.397820	-2.634230	 0.944184	-0.725372	-2.860268	-2.668298	-8.759940	 1.051259	 94.572080	 86.645550	 171.431700	-28.360700	 80.813690	 30.403490	 0.721005	-8.419640	 27.096680	-26.831880	-2.817116	 9.616071	-8.667929	-7.615178	-37.681040	 5.070815	-0.697434	-9.399699	-2.350882	 35.473990	 5.254307
-11.379540	-34.841870	 0.910644	-36.502660	 19.827080	 3.877997	 3.572200	-34.440970	 175.794500	-2.705494	-43.229220	-1.273342	-1.306428	 82.189030	-0.020557	-2.322401	 37.680480	-0.215113	-0.809551	-35.331900	-179.258500	-2.921994	-41.842800	-0.968313	-1.828256	 83.391110	 0.851830	 2.404653	 21.541480	-0.142335	-9.628828	 14.014630	 1.840652	-7.367759	 1.480247	-1.260348	-9.993429	-4.367579	-1.041880	-107.125700	 88.579760	-160.403900	 67.551180	 70.045010	-65.425380	-12.085670	 0.579745	-25.152060	-1.245729	-2.080396	-5.447470	-4.068852	-11.049720	 2.325659	-5.213516	-0.193813	 3.566525	-1.378229	 35.397820	-2.634230	 1.024657	-0.799960	-2.554588	-2.474858	-8.863490	 1.217350	 94.885880	 86.808070	 171.138100	-23.457630	 80.669140	 24.448610	 0.607019	-8.341226	 27.184400	-26.981990	-2.807358	 9.614163	-8.581722	-7.725385	-37.397950	 5.070815	-0.697434	-9.399699	-2.350882	 35.473990	 5.254307
-11.384720	-34.848380	 0.912155	-36.496460	 19.988480	 3.843496	 3.563100	-34.143130	 175.802500	-2.605893	-42.983600	-1.204111	-1.317001	 82.248200	 0.044964	-2.318327	 38.096870	-0.225739	-0.708715	-34.779640	-179.235900	-2.932824	-41.284100	-0.921446	-1.769906	 83.563640	 0.852788	 2.404984	 21.314210	-0.146892	-9.624480	 13.670880	 1.793506	-7.106707	 1.368830	-1.245651	-9.588248	-4.475594	-1.008423	-106.858100	 88.585290	-160.761500	 67.033070	 70.032630	-65.004230	-12.580700	 0.765295	-25.694310	-1.653988	-2.060942	-5.453424	-4.156171	-11.173690	 2.122465	-5.213516	-0.193813	 3.566525	-1.378229	 35.397820	-2.634230	 1.067449	-0.756987	-2.529021	-2.283137	-8.970706	 1.375313	 94.911380	 86.821530	 171.115800	-22.227130	 80.426910	 22.795660	 0.689770	-8.282752	 27.564000	-26.759500	-2.795764	 9.620644	-8.523100	-7.826140	-37.187950	 5.070815	-0.697434	-9.399699	-2.350882	 35.473990	 5.254307
-11.390940	-34.853690	 0.913628	-36.175980	 19.996120	 3.812941	 3.383788	-33.916500	 175.624700	-2.308960	-42.815290	-1.098408	-1.314421	 82.351520	 0.142148	-2.316162	 38.312690	-0.231292	-0.750270	-33.928290	-179.421600	-2.637011	-40.441420	-0.752291	-1.735358	 83.662680	 1.025156	 2.405318	 21.071860	-0.151743	-9.697189	 13.407540	 1.744243	-6.864722	 1.210994	-1.356947	-9.115333	-4.552649	-0.964570	-107.711100	 88.662060	-159.948900	 65.304690	 69.926560	-64.116100	-13.368290	 0.983752	-26.973080	-2.018091	-2.027370	-5.459228	-4.722346	-12.137250	 0.831223	-5.213516	-0.193813	 3.566525	-1.378229	 35.397820	-2.634230	 1.057179	-0.836233	-2.569903	-2.066865	-8.945741	 1.304853	 94.824100	 86.724220	 171.110800	-23.156650	 80.293330	 24.087530	 0.982369	-8.272986	 28.131530	-26.506260	-2.783156	 9.627290	-8.518200	-7.903079	-37.122920	 5.070815	-0.697434	-9.399699	-2.350882	 35.473990	 5.254307
-11.395840	-34.857390	 0.914486	-36.168750	 19.913640	 3.851526	 3.226454	-33.398930	 175.454200	-2.229916	-42.624550	-1.134808	-1.352941	 82.358850	 0.126397	-2.315685	 38.359090	-0.232489	-0.796383	-33.441890	-179.514100	-2.643767	-39.927380	-0.784685	-1.756850	 83.789530	 1.015973	 2.405517	 20.918950	-0.154802	-9.569031	 13.150200	 1.757345	-6.502345	 1.097572	-1.409144	-8.697361	-4.569961	-0.921472	-109.126800	 88.751340	-158.516300	 62.826340	 69.861360	-62.879990	-14.394900	 1.189278	-28.149920	-2.336108	-1.999758	-5.463699	-5.301217	-13.526990	-0.424295	-5.213516	-0.193813	 3.566525	-1.378229	 35.397820	-2.634230	 1.054857	-0.876409	-2.622879	-1.979152	-8.840124	 1.234306	 94.627140	 86.636630	 171.319300	-25.870400	 80.146550	 27.338000	 1.234886	-8.297319	 28.836040	-26.144040	-2.768784	 9.639998	-8.564837	-7.929293	-37.215710	 5.070815	-0.697434	-9.399699	-2.350882	 35.473990	 5.254307
-11.400670	-34.860480	 0.915065	-36.268320	 19.806250	 3.776021	 3.191098	-32.637840	 175.394900	-2.315237	-42.160890	-1.206271	-1.423121	 82.279730	 0.086567	-2.315013	 38.425760	-0.234202	-0.856045	-32.928700	-179.536600	-2.717535	-39.565340	-0.865383	-1.836013	 83.977290	 1.008026	 2.405626	 20.831300	-0.156558	-9.371070	 12.835700	 1.897583	-6.057616	 0.983773	-1.393519	-8.200999	-4.598430	-0.870725	-110.586700	 88.829310	-157.032100	 60.056540	 69.675840	-61.321870	-15.682300	 1.558457	-29.577390	-3.054996	-1.959222	-5.470169	-6.191899	-15.098870	-2.294945	-5.213516	-0.193813	 3.566525	-1.378229	 35.397820	-2.634230	 1.079411	-0.905505	-2.747838	-1.866995	-8.732941	 1.323389	 94.474150	 86.571200	 171.491000	-32.184720	 79.686450	 34.381150	 1.038438	-8.405371	 29.841350	-25.702450	-2.751475	 9.656328	-8.543964	-8.002604	-37.115360	 5.070815	-0.697434	-9.399699	-2.350882	 35.473990	 5.254307
-11.405500	-34.862870	 0.915335	-36.058730	 19.704990	 3.668171	 3.176678	-31.842360	 175.314400	-2.213165	-41.649260	-1.138386	-1.449032	 82.307520	 0.150127	-2.313908	 38.534050	-0.237002	-0.964783	-32.183850	-179.585900	-2.606018	-39.314060	-0.851895	-1.822279	 84.159340	 1.020665	 2.405729	 20.755190	-0.158077	-9.227722	 12.523620	 1.930803	-5.609269	 0.873513	-1.429078	-7.607412	-4.677598	-0.812732	-111.894200	 88.912680	-155.798600	 57.889310	 69.304180	-60.221690	-16.579640	 1.946979	-31.279950	-3.688355	-1.918754	-5.474626	-6.679577	-15.958400	-3.280060	-5.213516	-0.193813	 3.566525	-1.378229	 35.397820	-2.634230	 1.106180	-0.734552	-2.864774	-1.654173	-8.873564	 1.594865	 94.365330	 86.529940	 171.624400	-38.669680	 78.972840	 41.604570	 1.177884	-8.471704	 31.310650	-24.759670	-2.730079	 9.681520	-8.547709	-8.181378	-37.001200	 5.070815	-0.697434	-9.399699	-2.350882	 35.473990	 5.254307
-11.409390	-34.864240	 0.914845	-35.768510	 19.497930	 3.569891	 3.178594	-31.313880	 175.264200	-2.128281	-41.374390	-1.079603	-1.464258	 82.421430	 0.206630	-2.312483	 38.672710	-0.240594	-1.022890	-31.510260	-179.666400	-2.418447	-39.131370	-0.763862	-1.743433	 84.391950	 1.063944	 2.405562	 20.882900	-0.155523	-9.069782	 12.248910	 1.887542	-5.177085	 0.808954	-1.449274	-7.054590	-4.722209	-0.756244	-113.262600	 88.980670	-154.465300	 56.715200	 68.860150	-59.968410	-16.891760	 2.176733	-32.591010	-3.927015	-1.893771	-5.476614	-6.698083	-16.076300	-3.308709	-5.213516	-0.193813	 3.566525	-1.378229	 35.397820	-2.634230	 1.115343	-0.647454	-2.908264	-1.491379	-8.887429	 1.743018	 94.307010	 86.513620	 171.705700	-43.428500	 78.226810	 46.964320	 1.334291	-8.556603	 32.794630	-23.905720	-2.711899	 9.700369	-8.671180	-8.645712	-36.975780	 5.070815	-0.697434	-9.399699	-2.350882	 35.473990	 5.254307
-11.413490	-34.865780	 0.913487	-35.540540	 19.149370	 3.619691	 3.208135	-30.589880	 175.218900	-2.252692	-41.212320	-1.154062	-1.547603	 82.639980	 0.178408	-2.311038	 38.810860	-0.244202	-1.126977	-30.651420	-179.870000	-2.213967	-38.907480	-0.692381	-1.680660	 84.736500	 1.110548	 2.405411	 21.000340	-0.153172	-8.812112	 11.925510	 1.704023	-4.613171	 0.750850	-1.515047	-6.392744	-4.727226	-0.685423	-114.576600	 89.037740	-153.177500	 56.206110	 68.348460	-60.284210	-16.979490	 2.391150	-33.843690	-4.110683	-1.872871	-5.478435	-6.527033	-15.927240	-2.953097	-5.213516	-0.193813	 3.566525	-1.378229	 35.397820	-2.634230	 1.166148	-0.531978	-2.907812	-1.323559	-8.855655	 1.752682	 94.235180	 86.518280	 171.844100	-47.179210	 77.442920	 51.317550	 1.392080	-8.635281	 34.180500	-23.217650	-2.693621	 9.716216	-8.774092	-8.967480	-36.999360	 5.070815	-0.697434	-9.399699	-2.350882	 35.473990	 5.254307
